<svg xmlns="http://www.w3.org/2000/svg" version="1.1" width="512" height="512" viewBox="0 0 512 512"><path fill="#dddddd" d="M455.68 183.38C358.61 116.59 239.28 49.12 151.04 7.55 101.18-18.54 28.3 26.44 24.41 89.63a2269.963 2269.963 0 0 0 0 332.74c3.89 63.19 76.77 108.17 126.63 82.09 88.24-41.57 207.57-109.04 304.64-175.83 26.48-18.34 38.1-45.56 38.25-72.62-.15-27.06-11.76-54.28-38.25-72.62z"></path><path fill="#ffffff" d="M24.41 89.63a2269.683 2269.683 0 0 0-1.8 305.8 278.43 278.43 0 0 0 48.99 4.34c152.79 0 276.65-123.86 276.65-276.65 0-2.95-.05-5.89-.14-8.82C279.06 72.63 208.47 34.6 151.04 7.55 101.18-18.54 28.3 26.44 24.41 89.63z"></path></svg>