<svg enable-background="new 0 0 32 32" height="512" viewBox="0 0 32 32" width="512" xmlns="http://www.w3.org/2000/svg"><g id="Layer_1"><path d="m29.72 12.83c-.74-.1-1.49-.2-2.23-.3-.24-.77-.54-1.5-.91-2.2.45-.6.91-1.1899 1.36-1.79.45-.59.4-1.42-.12-1.94l-1.15-1.14-1.27-1.28c-.52-.52-1.35-.57-1.94-.12-.6.45-1.19.91-1.79 1.36-.7-.37-1.43-.67-2.2-.91-.1-.7401-.2-1.4901-.3-2.23-.1-.73-.72-1.28-1.46-1.28h-3.42c-.74 0-1.36.55-1.46 1.28-.1.74-.2 1.49-.3 2.23-.77.24-1.5.54-2.2.91-.6-.45-1.19-.91-1.79-1.36-.59-.45-1.42-.4-1.94.12l-2.42 2.42c-.52.52-.57 1.35-.12 1.94.45.6.91 1.19 1.36 1.79-.37.7-.67 1.4301-.91 2.2-.74.1-1.49.2-2.23.3-.73.1-1.28.72-1.28 1.46v3.42c0 .7401.55 1.36 1.28 1.46.74.1 1.49.2 2.23.3.24.77.54 1.5.91 2.2-.45.6-.91 1.19-1.36 1.79-.45.59-.4 1.42.12 1.94l2.42 2.42c.52.52 1.35.57 1.94.12.6-.45 1.19-.91 1.79-1.36.7.3701 1.43.67 2.2.91.1.74.2 1.49.3 2.23.1.73.72 1.28 1.46 1.28h3.42c.74 0 1.36-.55 1.46-1.28.1-.74.2-1.49.3-2.23.77-.24 1.5-.54 2.2-.91.6.45 1.19.91 1.79 1.36.59.45 1.42.4 1.94-.12l1.14-1.15 1.28-1.27c.52-.52.57-1.35.12-1.94-.45-.6-.91-1.19-1.36-1.79.37-.7.67-1.43.91-2.2.74-.1 1.49-.2 2.23-.3.73-.1 1.28-.72 1.28-1.46v-3.42c0-.74-.55-1.36-1.28-1.46zm-13.72 8.17c-2.76 0-5-2.24-5-5s2.24-5 5-5 5 2.24 5 5-2.24 5-5 5z" fill="#ffffff"/></g></svg>