<?xml version="1.0" encoding="iso-8859-1"?>
<!-- Generator: Adobe Illustrator 19.0.0, SVG Export Plug-In . SVG Version: 6.00 Build 0)  -->
<svg xmlns="http://www.w3.org/2000/svg" xmlns:xlink="http://www.w3.org/1999/xlink" version="1.1" id="Layer_1" x="0px" y="0px" viewBox="0 0 486 486" style="enable-background:new 0 0 486 486;" xml:space="preserve" width="512" height="512">
<g>
	<path d="M297.82,206.61h-15.41c-6.59,0-11.94,5.36-11.94,11.94v48.9c0,6.58,5.35,11.94,11.94,11.94h15.41   c6.59,0,11.95-5.36,11.95-11.94v-48.9C309.77,211.97,304.41,206.61,297.82,206.61z M297.82,206.61h-15.41   c-6.59,0-11.94,5.36-11.94,11.94v48.9c0,6.58,5.35,11.94,11.94,11.94h15.41c6.59,0,11.95-5.36,11.95-11.94v-48.9   C309.77,211.97,304.41,206.61,297.82,206.61z M481.61,137.95L348.05,4.39C345.23,1.58,341.42,0,337.44,0H148.56   c-3.98,0-7.79,1.58-10.61,4.39L4.39,137.95C1.58,140.77,0,144.58,0,148.56v188.88c0,3.98,1.58,7.79,4.39,10.61l133.56,133.56   c2.82,2.81,6.63,4.39,10.61,4.39h188.88c3.98,0,7.79-1.58,10.61-4.39l133.56-133.56c2.81-2.82,4.39-6.63,4.39-10.61V148.56   C486,144.58,484.42,140.77,481.61,137.95z M74.13,230.5h15.41c20.37,0,36.95,16.57,36.95,36.95c0,20.37-16.58,36.94-36.95,36.94   H49.69c-6.91,0-12.5-5.59-12.5-12.5c0-6.9,5.59-12.5,12.5-12.5h39.85c6.59,0,11.95-5.36,11.95-11.94c0-6.59-5.36-11.95-11.95-11.95   H74.13c-20.37,0-36.94-16.57-36.94-36.95c0-20.37,16.57-36.94,36.94-36.94h39.86c6.9,0,12.5,5.59,12.5,12.5   c0,6.9-5.6,12.5-12.5,12.5H74.13c-6.59,0-11.94,5.36-11.94,11.94C62.19,225.14,67.54,230.5,74.13,230.5z M218.13,206.61h-19.65   v85.28c0,6.91-5.6,12.5-12.5,12.5c-6.91,0-12.5-5.59-12.5-12.5v-85.28h-19.65c-6.91,0-12.5-5.6-12.5-12.5   c0-6.91,5.59-12.5,12.5-12.5h64.3c6.9,0,12.5,5.59,12.5,12.5C230.63,201.01,225.03,206.61,218.13,206.61z M334.77,267.45   c0,20.37-16.58,36.94-36.95,36.94h-15.41c-20.37,0-36.94-16.57-36.94-36.94v-48.9c0-20.37,16.57-36.94,36.94-36.94h15.41   c20.37,0,36.95,16.57,36.95,36.94V267.45z M411.87,255.5h-27.36v36.39c0,6.91-5.59,12.5-12.5,12.5c-6.9,0-12.5-5.59-12.5-12.5   v-97.78c0-6.873,5.566-12.5,12.5-12.5h39.86c20.37,0,36.94,16.57,36.94,36.94C448.81,238.93,432.24,255.5,411.87,255.5z    M411.87,206.61h-27.36v23.89h27.36c6.59,0,11.94-5.36,11.94-11.95C423.81,211.97,418.46,206.61,411.87,206.61z M297.82,206.61   h-15.41c-6.59,0-11.94,5.36-11.94,11.94v48.9c0,6.58,5.35,11.94,11.94,11.94h15.41c6.59,0,11.95-5.36,11.95-11.94v-48.9   C309.77,211.97,304.41,206.61,297.82,206.61z" fill="#ffffff"/>
</g>















</svg>
