<svg id="Layer_2" height="512" viewBox="0 0 480 480" width="512" xmlns="http://www.w3.org/2000/svg"><g id="Layer_1-2"><g id="TEXT"><g id="Base"><path d="m0 232.9 42.91-42.91v42.91z" fill="#135431"/><path d="m480 232.9-42.91-42.91v42.91z" fill="#135431"/><path d="m340 0h-274.64c-14.01 0-25.36 11.19-25.36 25v430c0 13.81 11.35 25 25.36 25h349.28c14.01 0 25.36-11.19 25.36-25v-355z" fill="#35bd73"/><path d="m340 0 100 100h-100z" fill="#d9ffeb"/><path d="m0 232.9h480v180h-480z" fill="#229456"/><path d="m440 100v100l-100-100z" fill="#1b9754"/><g fill="#d9ffeb"><rect height="20" rx="10" width="139.48" x="80" y="96.69"/><rect height="20" rx="10" width="230" x="80" y="134.8"/><rect height="20" rx="10" width="230" x="80" y="172.9"/></g></g><g id="TEXT-2" fill="#fff"><path d="m147.46 289.43h-32.01v86.79h-25.71v-86.79h-31.42v-19.85h89.14z"/><path d="m224.44 330.96h-40.43v25.49h47.75v19.78h-73.46v-106.64h73.61v19.85h-47.9v22.49h40.43v19.04z"/><path d="m282 305.03 17.43-35.45h29.37l-29.81 52.88 30.62 53.76h-29.66l-17.94-36.11-17.94 36.11h-29.59l30.54-53.76-29.74-52.88h29.3l17.43 35.45z"/><path d="m421.68 289.43h-32.01v86.79h-25.71v-86.79h-31.42v-19.85h89.14z"/></g></g></g></svg>